<svg xmlns="http://www.w3.org/2000/svg" viewBox="0 0 512.02 372.38"><defs><style>.cls-1{fill:#fff;}</style></defs><g id="Layer_2" data-name="Layer 2"><g id="Layer_1-2" data-name="Layer 1"><path class="cls-1" d="M256,23.25V349.11a23.27,23.27,0,0,1-37.81,18.17l-110-88H69.83A69.9,69.9,0,0,1,0,209.46V162.9A69.89,69.89,0,0,1,69.83,93.08h38.39l110-88A23.27,23.27,0,0,1,256,23.25ZM452,186.08l53.2-53.2A23.27,23.27,0,0,0,472.29,100L419,153.18,365.56,99.85a23.3,23.3,0,1,0-32.89,33h0l53.41,53.29-53.39,53.38a23.27,23.27,0,1,0,32.91,32.91h0L419,219l52.86,52.75a23.3,23.3,0,1,0,32.89-33Z"/></g></g></svg>