<svg xmlns="http://www.w3.org/2000/svg" viewBox="0 0 511.98 369.72"><defs><style>.cls-1{fill:#fff;}</style></defs><g id="Layer_2" data-name="Layer 2"><g id="Layer_1-2" data-name="Layer 1"><path class="cls-1" d="M234.67,35.52V334.18A21.34,21.34,0,0,1,200,350.85L99.18,270.18H64a64.07,64.07,0,0,1-64-64V163.52a64.07,64.07,0,0,1,64-64H99.18L200,18.85a21.33,21.33,0,0,1,34.66,16.66Zm54.11,90.68a21.33,21.33,0,0,0-1.2,30.14h0a42.22,42.22,0,0,1,0,57,21.35,21.35,0,0,0,31.33,29,84.9,84.9,0,0,0,0-114.94,21.34,21.34,0,0,0-30.14-1.22ZM379,66.72a21.33,21.33,0,0,0-30.78,29.54,127.61,127.61,0,0,1,0,177.19A21.33,21.33,0,0,0,379,303h0a170.25,170.25,0,0,0,0-236.27Zm60.36-60.6a21.34,21.34,0,0,0-30.55,29.79c80.68,82.91,80.68,215,0,297.9a21.34,21.34,0,0,0,30.55,29.79C536.18,264.11,536.18,105.61,439.36,6.12Z"/></g></g></svg>